<svg width="50" height="50" viewBox="0 0 50 50" fill="none" xmlns="http://www.w3.org/2000/svg">
<path d="M30.7943 29.0525L36.2132 31.7573C35.9563 33.0408 35.2621 34.1954 34.249 35.0242C33.2359 35.853 31.9666 36.3047 30.6576 36.3021C26.1601 36.2971 21.8482 34.5083 18.668 31.3281C15.4878 28.1479 13.6989 23.836 13.694 19.3385C13.6936 18.0311 14.1462 16.7641 14.9749 15.7529C15.8035 14.7417 16.9569 14.0489 18.2388 13.7923L20.9436 19.2112L18.6417 22.637C18.4697 22.895 18.364 23.1915 18.334 23.5001C18.304 23.8088 18.3506 24.12 18.4697 24.4064C19.8183 27.6115 22.3681 30.1613 25.5732 31.5099C25.8604 31.6343 26.1741 31.6852 26.4859 31.658C26.7976 31.6309 27.0978 31.5265 27.3591 31.3544L30.7943 29.0525ZM49.5061 24.993C49.5071 29.2234 48.4127 33.382 46.3296 37.064C44.2465 40.7459 41.2457 43.8259 37.6191 46.004C33.9925 48.1821 29.8638 49.3842 25.6348 49.4933C21.4058 49.6024 17.2207 48.6147 13.4866 46.6264L5.46423 49.3005C4.80002 49.522 4.08725 49.5542 3.4058 49.3934C2.72435 49.2326 2.10115 48.8851 1.60606 48.39C1.11096 47.8949 0.763536 47.2717 0.602719 46.5903C0.441901 45.9088 0.474046 45.1961 0.695553 44.5319L3.36969 36.5095C1.62184 33.2233 0.645598 29.5821 0.515073 25.8623C0.384547 22.1426 1.10317 18.4419 2.61638 15.0413C4.1296 11.6407 6.39764 8.62955 9.24834 6.23637C12.0991 3.84319 15.4575 2.13089 19.0688 1.22946C22.68 0.328025 26.4492 0.261143 30.0902 1.03389C33.7312 1.80664 37.1483 3.3987 40.0821 5.68924C43.0159 7.97978 45.3893 10.9086 47.0223 14.2534C48.6552 17.5981 49.5046 21.2709 49.5061 24.993ZM40.0819 30.6476C40.0821 30.2974 39.9848 29.9541 39.8009 29.6561C39.617 29.3582 39.3537 29.1173 39.0405 28.9606L31.5011 25.1909C31.2043 25.043 30.8738 24.9761 30.5429 24.9967C30.2119 25.0174 29.8923 25.125 29.6162 25.3087L26.1552 27.6177C24.5664 26.7443 23.2589 25.4368 22.3855 23.848L24.6944 20.3869C24.8781 20.1109 24.9857 19.7912 25.0064 19.4603C25.0271 19.1294 24.9601 18.7988 24.8122 18.5021L21.0425 10.9627C20.8863 10.6471 20.6448 10.3816 20.3454 10.1963C20.046 10.011 19.7006 9.91329 19.3485 9.91421C16.849 9.91421 14.452 10.9071 12.6846 12.6745C10.9172 14.4419 9.92426 16.839 9.92426 19.3385C9.93049 24.8354 12.1169 30.1054 16.0038 33.9923C19.8907 37.8792 25.1607 40.0656 30.6576 40.0718C31.8952 40.0718 33.1207 39.8281 34.2641 39.3545C35.4075 38.8808 36.4465 38.1866 37.3216 37.3115C38.1967 36.4364 38.8909 35.3975 39.3645 34.2541C39.8381 33.1107 40.0819 31.8852 40.0819 30.6476Z" fill="#20C461"/>
</svg>
