<svg width="23" height="20" viewBox="0 0 23 20" fill="none" xmlns="http://www.w3.org/2000/svg">
<path d="M22.5 6.72147C22.5 13.4759 12.4852 18.9431 12.0587 19.1688C11.9463 19.2293 11.8206 19.261 11.693 19.261C11.5654 19.261 11.4397 19.2293 11.3273 19.1688C10.9008 18.9431 0.885986 13.4759 0.885986 6.72147C0.887774 5.13537 1.51864 3.61475 2.64018 2.49321C3.76172 1.37167 5.28235 0.740801 6.86844 0.739014C8.86099 0.739014 10.6055 1.59586 11.693 3.04419C12.7805 1.59586 14.525 0.739014 16.5176 0.739014C18.1037 0.740801 19.6243 1.37167 20.7458 2.49321C21.8674 3.61475 22.4982 5.13537 22.5 6.72147Z" fill="white"/>
</svg>
