<svg width="29" height="24" viewBox="0 0 29 24" fill="none" xmlns="http://www.w3.org/2000/svg">
<path d="M28.5 7.75293C28.5 16.5029 15.5262 23.5854 14.9737 23.8779C14.8281 23.9563 14.6654 23.9973 14.5 23.9973C14.3346 23.9973 14.1719 23.9563 14.0262 23.8779C13.4738 23.5854 0.5 16.5029 0.5 7.75293C0.502316 5.69821 1.31958 3.72832 2.77248 2.27541C4.22539 0.822505 6.19528 0.00524561 8.25 0.00292969C10.8313 0.00292969 13.0912 1.11293 14.5 2.98918C15.9088 1.11293 18.1688 0.00292969 20.75 0.00292969C22.8047 0.00524561 24.7746 0.822505 26.2275 2.27541C27.6804 3.72832 28.4977 5.69821 28.5 7.75293Z" fill="white"/>
</svg>
