<svg width="56" height="55" viewBox="0 0 56 55" fill="none" xmlns="http://www.w3.org/2000/svg">
<path d="M28 0C22.561 0 17.2442 1.61285 12.7218 4.63458C8.19948 7.65632 4.67473 11.9512 2.59332 16.9762C0.511915 22.0012 -0.0326763 27.5305 1.02842 32.865C2.08951 38.1995 4.70863 43.0995 8.55457 46.9454C12.4005 50.7914 17.3005 53.4105 22.635 54.4716C27.9695 55.5327 33.4988 54.9881 38.5238 52.9067C43.5488 50.8253 47.8437 47.3005 50.8654 42.7782C53.8872 38.2558 55.5 32.939 55.5 27.5C55.4923 20.2089 52.5925 13.2186 47.4369 8.06307C42.2813 2.90748 35.2911 0.00769952 28 0ZM38.7224 29.2399L24.9724 38.7591C24.6549 38.9786 24.2835 39.1071 23.8983 39.1306C23.5131 39.1542 23.1288 39.0719 22.787 38.8927C22.4452 38.7135 22.1589 38.4442 21.9592 38.114C21.7594 37.7837 21.6539 37.4052 21.6539 37.0192V17.9808C21.6539 17.5948 21.7594 17.2163 21.9592 16.886C22.1589 16.5558 22.4452 16.2865 22.787 16.1073C23.1288 15.9281 23.5131 15.8458 23.8983 15.8693C24.2835 15.8929 24.6549 16.0214 24.9724 16.2409L38.7224 25.7601C39.0038 25.9547 39.2338 26.2147 39.3927 26.5177C39.5516 26.8208 39.6346 27.1578 39.6346 27.5C39.6346 27.8422 39.5516 28.1792 39.3927 28.4823C39.2338 28.7853 39.0038 29.0453 38.7224 29.2399Z" fill="#ABABAB" fill-opacity="0.6"/>
</svg>
